<?xml version="1.0" encoding="UTF-8" standalone="no"?><svg xmlns="http://www.w3.org/2000/svg" xmlns:xlink="http://www.w3.org/1999/xlink" contentScriptType="text/ecmascript" fill="#000000" width="147.9" zoomAndPan="magnify" contentStyleType="text/css" viewBox="26.4 37.2 147.9 125.6" height="125.6" preserveAspectRatio="xMidYMid meet" version="1"><g fill="#ff3131" id="change1_1"><path d="M 59.53125 135.828125 L 64.058594 142.144531 C 62.902344 142.742188 61.660156 143.148438 60.351562 143.363281 C 59.726562 143.464844 59.09375 143.519531 58.464844 143.523438 Z M 58.332031 145.527344 C 59.113281 145.527344 59.898438 145.460938 60.675781 145.335938 C 62.605469 145.023438 64.414062 144.339844 66.050781 143.308594 L 66.949219 142.746094 L 58.238281 130.589844 L 56.183594 145.40625 L 57.246094 145.484375 C 57.605469 145.511719 57.96875 145.527344 58.332031 145.527344"/><path d="M 45.988281 128.179688 L 54.132812 131.191406 L 52.925781 141.34375 C 49.347656 140 46.628906 136.347656 46.011719 131.910156 C 45.835938 130.660156 45.828125 129.410156 45.988281 128.179688 Z M 44.230469 126.613281 C 43.835938 128.441406 43.769531 130.316406 44.03125 132.1875 C 44.824219 137.875 48.648438 142.46875 53.546875 143.621094 L 54.636719 143.875 L 56.304688 129.863281 L 44.472656 125.488281 L 44.230469 126.613281"/><path d="M 60.21875 126.46875 L 49.007812 122.914062 C 49.722656 121.480469 50.742188 120.207031 51.988281 119.1875 C 52.34375 118.898438 52.722656 118.625 53.113281 118.378906 C 54.394531 117.578125 55.808594 117.042969 57.316406 116.796875 C 58.203125 116.652344 59.109375 116.613281 59.996094 116.683594 C 60.457031 116.71875 60.917969 116.78125 61.371094 116.871094 C 65.960938 117.796875 69.546875 121.527344 70.300781 126.152344 C 70.550781 127.6875 70.484375 129.226562 70.109375 130.722656 C 69.996094 131.167969 69.855469 131.613281 69.691406 132.042969 L 69.6875 132.042969 C 69.109375 133.542969 68.210938 134.90625 67.070312 136.03125 Z M 71.554688 132.765625 C 71.75 132.261719 71.914062 131.738281 72.050781 131.210938 C 72.492188 129.445312 72.570312 127.636719 72.273438 125.832031 C 71.390625 120.390625 67.164062 116 61.765625 114.910156 C 61.234375 114.804688 60.691406 114.730469 60.148438 114.6875 C 59.097656 114.609375 58.039062 114.652344 56.992188 114.824219 C 55.21875 115.113281 53.558594 115.738281 52.050781 116.6875 C 51.589844 116.976562 51.144531 117.296875 50.722656 117.640625 C 48.933594 119.101562 47.542969 121.011719 46.710938 123.167969 L 46.324219 124.160156 L 58.980469 128.175781 L 66.714844 138.964844 L 67.539062 138.292969 C 69.332031 136.835938 70.71875 134.921875 71.554688 132.765625"/><path d="M 123.652344 154.398438 C 123.652344 157.933594 120.769531 160.8125 117.226562 160.8125 L 34.796875 160.8125 C 31.253906 160.8125 28.371094 157.933594 28.371094 154.398438 L 28.371094 45.609375 C 28.371094 42.066406 31.253906 39.1875 34.796875 39.1875 L 117.226562 39.1875 C 120.769531 39.1875 123.652344 42.066406 123.652344 45.609375 L 123.652344 84.074219 C 123.066406 84.273438 122.484375 84.488281 121.910156 84.726562 C 120.3125 85.390625 118.769531 86.214844 117.328125 87.179688 C 116.847656 87.503906 116.378906 87.84375 115.914062 88.199219 L 115.914062 46.921875 L 36.109375 46.921875 L 36.109375 153.078125 L 115.914062 153.078125 L 115.914062 130.515625 C 116.378906 130.871094 116.851562 131.210938 117.332031 131.53125 C 118.773438 132.496094 120.316406 133.324219 121.910156 133.984375 C 122.476562 134.21875 123.0625 134.4375 123.652344 134.636719 Z M 122.679688 132.136719 C 121.203125 131.527344 119.777344 130.761719 118.441406 129.867188 C 117.445312 129.203125 116.484375 128.449219 115.585938 127.636719 L 113.914062 126.121094 L 113.914062 151.078125 L 38.109375 151.078125 L 38.109375 48.921875 L 113.914062 48.921875 L 113.914062 92.589844 L 115.585938 91.074219 C 116.484375 90.261719 117.445312 89.511719 118.441406 88.84375 C 119.773438 87.953125 121.199219 87.1875 122.679688 86.574219 C 123.417969 86.269531 124.179688 85.996094 124.941406 85.761719 L 125.652344 85.546875 L 125.652344 45.609375 C 125.652344 40.964844 121.871094 37.1875 117.226562 37.1875 L 34.796875 37.1875 C 30.152344 37.1875 26.371094 40.964844 26.371094 45.609375 L 26.371094 154.398438 C 26.371094 159.039062 30.152344 162.8125 34.796875 162.8125 L 117.226562 162.8125 C 121.871094 162.8125 125.652344 159.039062 125.652344 154.398438 L 125.652344 133.164062 L 124.941406 132.949219 C 124.171875 132.714844 123.410156 132.441406 122.679688 132.136719"/><path d="M 104 62.265625 L 48.023438 62.265625 C 46.839844 62.265625 45.875 61.300781 45.875 60.113281 C 45.875 58.929688 46.839844 57.964844 48.023438 57.964844 L 104 57.964844 C 105.1875 57.964844 106.152344 58.929688 106.152344 60.113281 C 106.152344 61.300781 105.1875 62.265625 104 62.265625 Z M 104 55.964844 L 48.023438 55.964844 C 45.734375 55.964844 43.875 57.828125 43.875 60.113281 C 43.875 62.402344 45.734375 64.265625 48.023438 64.265625 L 104 64.265625 C 106.289062 64.265625 108.152344 62.402344 108.152344 60.113281 C 108.152344 57.828125 106.289062 55.964844 104 55.964844"/><path d="M 104 77.527344 L 48.023438 77.527344 C 46.839844 77.527344 45.875 76.5625 45.875 75.378906 C 45.875 74.191406 46.839844 73.226562 48.023438 73.226562 L 104 73.226562 C 105.1875 73.226562 106.152344 74.191406 106.152344 75.378906 C 106.152344 76.5625 105.1875 77.527344 104 77.527344 Z M 104 71.226562 L 48.023438 71.226562 C 45.734375 71.226562 43.875 73.089844 43.875 75.378906 C 43.875 77.664062 45.734375 79.527344 48.023438 79.527344 L 104 79.527344 C 106.289062 79.527344 108.152344 77.664062 108.152344 75.378906 C 108.152344 73.089844 106.289062 71.226562 104 71.226562"/><path d="M 104 92.789062 L 48.023438 92.789062 C 46.839844 92.789062 45.875 91.824219 45.875 90.640625 C 45.875 89.453125 46.839844 88.488281 48.023438 88.488281 L 104 88.488281 C 105.1875 88.488281 106.152344 89.453125 106.152344 90.640625 C 106.152344 91.824219 105.1875 92.789062 104 92.789062 Z M 104 86.488281 L 48.023438 86.488281 C 45.734375 86.488281 43.875 88.351562 43.875 90.640625 C 43.875 92.929688 45.734375 94.789062 48.023438 94.789062 L 104 94.789062 C 106.289062 94.789062 108.152344 92.929688 108.152344 90.640625 C 108.152344 88.351562 106.289062 86.488281 104 86.488281"/><path d="M 84.859375 120.542969 L 84.859375 142.898438 L 80.558594 142.898438 L 80.558594 120.542969 C 80.558594 119.359375 81.523438 118.394531 82.710938 118.394531 C 83.894531 118.394531 84.859375 119.359375 84.859375 120.542969 Z M 78.558594 120.542969 L 78.558594 144.898438 L 86.859375 144.898438 L 86.859375 120.542969 C 86.859375 118.253906 85 116.394531 82.710938 116.394531 C 80.421875 116.394531 78.558594 118.253906 78.558594 120.542969"/><path d="M 95.503906 130.203125 L 95.503906 142.898438 L 91.203125 142.898438 L 91.203125 130.203125 C 91.203125 129.015625 92.167969 128.050781 93.355469 128.050781 C 94.539062 128.050781 95.503906 129.015625 95.503906 130.203125 Z M 89.203125 130.203125 L 89.203125 144.898438 L 97.503906 144.898438 L 97.503906 130.203125 C 97.503906 127.914062 95.644531 126.050781 93.355469 126.050781 C 91.066406 126.050781 89.203125 127.914062 89.203125 130.203125"/><path d="M 106.152344 142.898438 L 101.851562 142.898438 L 101.851562 137.753906 C 101.851562 136.570312 102.816406 135.605469 104 135.605469 C 105.1875 135.605469 106.152344 136.570312 106.152344 137.753906 Z M 104 133.605469 C 101.710938 133.605469 99.851562 135.46875 99.851562 137.753906 L 99.851562 144.898438 L 108.152344 144.898438 L 108.152344 137.753906 C 108.152344 135.46875 106.289062 133.605469 104 133.605469"/><path d="M 170.433594 146.453125 C 169.640625 147.277344 168.570312 147.742188 167.425781 147.765625 C 166.277344 147.765625 165.191406 147.363281 164.367188 146.570312 L 150.585938 133.332031 C 149.851562 132.628906 149.53125 131.609375 149.722656 130.605469 L 149.824219 130.070312 L 144 124.476562 C 144.300781 124.21875 144.578125 123.925781 144.871094 123.652344 C 145.140625 123.410156 145.417969 123.179688 145.675781 122.921875 C 146.25 122.34375 146.769531 121.730469 147.261719 121.097656 C 147.3125 121.035156 147.367188 120.980469 147.417969 120.917969 L 153.242188 126.515625 L 153.769531 126.390625 C 154.765625 126.160156 155.796875 126.4375 156.527344 127.140625 L 170.3125 140.378906 C 172.019531 142.019531 172.070312 144.742188 170.433594 146.453125 Z M 119.957031 121.507812 C 116.707031 118.257812 114.917969 113.941406 114.917969 109.355469 C 114.917969 104.769531 116.707031 100.457031 119.957031 97.203125 C 123.210938 93.953125 127.523438 92.164062 132.109375 92.164062 C 136.695312 92.164062 141.011719 93.953125 144.261719 97.203125 C 147.511719 100.457031 149.300781 104.769531 149.300781 109.355469 C 149.300781 113.195312 148.03125 116.835938 145.714844 119.832031 C 145.28125 120.363281 144.832031 120.890625 144.347656 121.390625 C 144.167969 121.578125 143.980469 121.746094 143.796875 121.929688 C 140.605469 124.902344 136.484375 126.546875 132.109375 126.546875 C 127.523438 126.546875 123.210938 124.757812 119.957031 121.507812 Z M 171.695312 138.9375 L 157.914062 125.699219 C 156.828125 124.65625 155.351562 124.167969 153.867188 124.34375 L 148.542969 119.226562 C 150.328125 116.273438 151.300781 112.890625 151.300781 109.355469 C 151.300781 104.234375 149.304688 99.417969 145.675781 95.789062 C 142.046875 92.160156 137.230469 90.164062 132.109375 90.164062 C 126.988281 90.164062 122.171875 92.160156 118.542969 95.789062 C 114.914062 99.421875 112.917969 104.238281 112.917969 109.355469 C 112.917969 114.476562 114.914062 119.292969 118.542969 122.921875 C 122.171875 126.550781 126.992188 128.546875 132.109375 128.546875 C 135.765625 128.546875 139.261719 127.511719 142.289062 125.605469 L 147.683594 130.789062 C 147.566406 132.273438 148.113281 133.730469 149.199219 134.773438 L 162.980469 148.011719 C 164.160156 149.148438 165.703125 149.769531 167.339844 149.769531 C 167.378906 149.769531 167.421875 149.765625 167.464844 149.765625 C 169.144531 149.734375 170.710938 149.046875 171.875 147.835938 C 174.277344 145.335938 174.199219 141.34375 171.695312 138.9375"/></g></svg>